<?xml version="1.0" encoding="utf-8"?>
<svg width="271px" height="69px" viewbox="0 0 271 69" version="1.1" xmlns:xlink="http://www.w3.org/1999/xlink" xmlns="http://www.w3.org/2000/svg">
  <g id="Group-7">
    <g id="Group-Copy-3">
      <path d="M54.2417 66.2085L70.6631 0.0251259Q70.5062 0 70.3472 0L48.3028 0Q48.2046 0 48.1068 0.00962572Q48.0091 0.0192514 47.9128 0.0384102Q47.8165 0.0575689 47.7225 0.0860762Q47.6285 0.114583 47.5378 0.152165Q47.447 0.189746 47.3604 0.236039Q47.2738 0.282333 47.1922 0.336892Q47.1105 0.391452 47.0346 0.453752Q46.9587 0.516052 46.8892 0.585493Q46.8198 0.654934 46.7575 0.730847Q46.6952 0.80676 46.6406 0.888414Q46.5861 0.970069 46.5398 1.05668Q46.4935 1.14329 46.4559 1.23401Q46.4183 1.32474 46.3898 1.41872Q46.3613 1.5127 46.3422 1.60901Q46.323 1.70533 46.3134 1.80306Q46.3038 1.90079 46.3038 1.999L46.3038 18.5212C50.8631 21.8348 53.8274 27.21 53.8274 33.2775C53.8274 39.345 50.8631 44.7202 46.3038 48.0338L46.3038 64.5537Q46.3038 64.6519 46.3134 64.7496Q46.323 64.8474 46.3422 64.9437Q46.3613 65.04 46.3898 65.134Q46.4183 65.2279 46.4559 65.3187Q46.4935 65.4094 46.5398 65.496Q46.5861 65.5826 46.6406 65.6643Q46.6952 65.7459 46.7575 65.8218Q46.8198 65.8978 46.8892 65.9672Q46.9587 66.0366 47.0346 66.0989Q47.1105 66.1612 47.1922 66.2158Q47.2738 66.2704 47.3604 66.3166Q47.447 66.3629 47.5378 66.4005Q47.6285 66.4381 47.7225 66.4666Q47.8165 66.4951 47.9128 66.5143Q48.0091 66.5334 48.1068 66.5431Q48.2046 66.5527 48.3028 66.5527L54.045 66.5527L54.2417 66.2085ZM-2.76107e-06 4.2085L-2.82173e-06 2.86375Q-2.83034e-06 2.66686 0.0384074 2.47376Q0.0768176 2.28066 0.152162 2.09876Q0.227506 1.91686 0.33689 1.75316Q0.446273 1.58946 0.585491 1.45024Q0.724709 1.31102 0.888412 1.20164Q1.05212 1.09226 1.23401 1.01691Q1.41591 0.941567 1.60901 0.903156Q1.80211 0.864746 1.999 0.864746L24.0433 0.864746Q24.1415 0.864746 24.2393 0.874372Q24.337 0.883998 24.4333 0.903156Q24.5296 0.922315 24.6236 0.950822Q24.7176 0.97933 24.8083 1.01691Q24.899 1.05449 24.9857 1.10079Q25.0723 1.14708 25.1539 1.20164Q25.2356 1.2562 25.3115 1.3185Q25.3874 1.3808 25.4568 1.45024Q25.5263 1.51968 25.5886 1.59559Q25.6509 1.67151 25.7054 1.75316Q25.76 1.83482 25.8063 1.92142Q25.8526 2.00803 25.8902 2.09876Q25.9278 2.18949 25.9563 2.28347Q25.9848 2.37744 26.0039 2.47376Q26.0231 2.57008 26.0327 2.66781Q26.0423 2.76554 26.0423 2.86375L26.0423 19.3835C21.4825 22.6971 18.5178 28.0725 18.5178 34.1405C18.5178 40.2084 21.4825 45.5838 26.0423 48.8974L26.0423 65.4185Q26.0423 65.5167 26.0327 65.6144Q26.0231 65.7122 26.0039 65.8085Q25.9848 65.9048 25.9563 65.9988Q25.9278 66.0927 25.8902 66.1835Q25.8526 66.2742 25.8063 66.3608Q25.76 66.4474 25.7054 66.5291Q25.6509 66.6107 25.5886 66.6866Q25.5263 66.7626 25.4568 66.832Q25.3874 66.9014 25.3115 66.9637Q25.2356 67.026 25.1539 67.0806Q25.0723 67.1351 24.9857 67.1814Q24.8991 67.2277 24.8083 67.2653Q24.7176 67.3029 24.6236 67.3314Q24.5296 67.3599 24.4333 67.3791Q24.337 67.3982 24.2393 67.4079Q24.1415 67.4175 24.0433 67.4175L19.273 67.4175L3.2417 4.2085L-2.76107e-06 4.2085Z" id="Group-Difference" fill="#01D3B0" fill-rule="evenodd" stroke="none" />
      <g id="user-tie" transform="translate(23.142578 16.86914)">
        <path d="M12.8362 14.6699C16.8876 14.6699 20.1712 11.3864 20.1712 7.33495C20.1712 3.28354 16.8876 0 12.8362 0C8.78477 0 5.50122 3.28354 5.50122 7.33495C5.50122 11.3864 8.78477 14.6699 12.8362 14.6699L12.8362 14.6699ZM18.326 16.5378L15.5868 27.5058L13.7531 19.7125L15.5868 16.5034L10.0856 16.5034L11.9193 19.7125L10.0856 27.5058L7.34644 16.5378C3.26063 16.7326 0 20.0735 0 24.2051L0 26.589C0 28.1075 1.23205 29.3396 2.75062 29.3396L22.9218 29.3396C24.4404 29.3396 25.6724 28.1075 25.6724 26.589L25.6724 24.2051C25.6724 20.0735 22.4118 16.7326 18.326 16.5378L18.326 16.5378Z" id="Shape" fill="#000000" fill-rule="evenodd" stroke="none" />
      </g>
    </g>
    <path d="M6.14392 10.5602Q3.35992 10.5602 1.67992 9.07217Q-7.99894e-05 7.58418 -7.99894e-05 5.32817Q-7.99894e-05 3.02418 1.67992 1.51218Q3.35992 0.000171661 6.14392 0.000171661Q8.87992 0.000175476 10.5599 1.51218Q12.2399 3.02418 12.2399 5.32817Q12.2399 7.58418 10.5599 9.07217Q8.87992 10.5602 6.14392 10.5602ZM163.584 10.5602Q160.8 10.5602 159.12 9.07217Q157.44 7.58418 157.44 5.32817Q157.44 3.02418 159.12 1.51218Q160.8 0.000171661 163.584 0.000171661Q166.32 0.000175476 168 1.51218Q169.68 3.02418 169.68 5.32817Q169.68 7.58418 168 9.07217Q166.32 10.5602 163.584 10.5602ZM64.8479 26.0162Q64.8479 27.1202 64.7039 28.1282L47.5679 28.1282Q47.8079 31.6322 50.4959 31.6322Q52.2239 31.6322 52.9919 30.0482L64.2719 30.0482Q63.6959 32.9282 61.8479 35.2082Q59.9999 37.4882 57.1919 38.8082Q54.3839 40.1282 51.0239 40.1282Q46.9919 40.1282 43.8479 38.4482Q40.7039 36.7682 38.9519 33.6242Q37.1999 30.4802 37.1999 26.2562Q37.1999 22.0322 38.9519 18.8882Q40.7039 15.7442 43.8479 14.0642Q46.9919 12.3842 51.0239 12.3842Q55.0559 12.3842 58.1999 14.0402Q61.3439 15.6962 63.0959 18.7682Q64.8479 21.8402 64.8479 26.0162ZM78.8639 16.4162Q79.8719 14.5442 81.7679 13.4642Q83.6639 12.3842 86.3039 12.3842Q89.4719 12.3842 92.0159 14.0402Q94.5599 15.6962 96.0239 18.8402Q97.4879 21.9842 97.4879 26.2562Q97.4879 30.5282 96.0239 33.6722Q94.5599 36.8162 92.0159 38.4722Q89.4719 40.1282 86.3039 40.1282Q83.6639 40.1282 81.7679 39.0482Q79.8719 37.9682 78.8639 36.0962L78.8639 52.7522L68.2079 52.7522L68.2079 12.7202L78.8639 12.7202L78.8639 16.4162ZM127.056 26.0162Q127.056 27.1202 126.912 28.1282L109.776 28.1282Q110.016 31.6322 112.704 31.6322Q114.432 31.6322 115.2 30.0482L126.48 30.0482Q125.904 32.9282 124.056 35.2082Q122.208 37.4882 119.4 38.8082Q116.592 40.1282 113.232 40.1282Q109.2 40.1282 106.056 38.4482Q102.912 36.7682 101.16 33.6242Q99.4079 30.4802 99.4079 26.2562Q99.4079 22.0322 101.16 18.8882Q102.912 15.7442 106.056 14.0642Q109.2 12.3842 113.232 12.3842Q117.264 12.3842 120.408 14.0402Q123.552 15.6962 125.304 18.7682Q127.056 21.8402 127.056 26.0162ZM142.464 40.1282Q138.624 40.1282 135.672 38.8802Q132.72 37.6322 130.992 35.4242Q129.264 33.2162 129.024 30.4322L139.248 30.4322Q139.44 31.6322 140.28 32.2082Q141.12 32.7842 142.416 32.7842Q143.232 32.7842 143.712 32.4242Q144.192 32.0642 144.192 31.5362Q144.192 30.6242 143.184 30.2402Q142.176 29.8562 139.776 29.3762Q136.848 28.8002 134.952 28.1282Q133.056 27.4562 131.64 25.8242Q130.224 24.1922 130.224 21.3122Q130.224 18.8162 131.544 16.7762Q132.864 14.7362 135.456 13.5602Q138.048 12.3842 141.744 12.3842Q147.216 12.3842 150.312 15.0722Q153.408 17.7602 154.032 22.0802L144.576 22.0802Q144.336 20.9762 143.568 20.3762Q142.8 19.7762 141.504 19.7762Q140.688 19.7762 140.256 20.0882Q139.824 20.4002 139.824 21.0242Q139.824 21.8402 140.832 22.2482Q141.84 22.6562 144.048 23.0882Q146.976 23.6642 148.992 24.3842Q151.008 25.1042 152.496 26.8562Q153.984 28.6082 153.984 31.6802Q153.984 34.0802 152.592 36.0002Q151.2 37.9202 148.584 39.0242Q145.968 40.1282 142.464 40.1282ZM26.8799 17.7122Q28.5119 15.3602 30.8639 13.9442Q33.2159 12.5282 35.7599 12.5282L35.7599 23.9042L32.7359 23.9042Q29.7119 23.9042 28.2959 24.9602Q26.8799 26.0162 26.8799 28.7042L26.8799 39.7922L16.2239 39.7922L16.2239 12.7202L26.8799 12.7202L26.8799 17.7122ZM192.624 12.5282Q197.28 12.5282 199.896 15.6482Q202.512 18.7682 202.512 24.0962L202.512 39.7922L191.904 39.7922L191.904 25.4402Q191.904 23.5202 190.872 22.3922Q189.84 21.2642 188.112 21.2642Q186.336 21.2642 185.328 22.3922Q184.32 23.5202 184.32 25.4402L184.32 39.7922L173.664 39.7922L173.664 12.7202L184.32 12.7202L184.32 16.8482Q185.568 14.9282 187.656 13.7282Q189.744 12.5282 192.624 12.5282ZM11.4239 12.7202L11.4239 39.7922L0.76792 39.7922L0.76792 12.7202L11.4239 12.7202ZM168.864 39.7922L158.208 39.7922L158.208 12.7202L168.864 12.7202L168.864 39.7922ZM54.0479 23.4722Q54.0479 22.1282 53.1839 21.4322Q52.3199 20.7362 51.0239 20.7362Q48.1919 20.7362 47.7119 23.4722L54.0479 23.4722ZM116.256 23.4722Q116.256 22.1282 115.392 21.4322Q114.528 20.7362 113.232 20.7362Q110.4 20.7362 109.92 23.4722L116.256 23.4722ZM86.6879 26.2562Q86.6879 24.0962 85.5839 22.8962Q84.4799 21.6962 82.7519 21.6962Q81.0239 21.6962 79.9199 22.8962Q78.8159 24.0962 78.8159 26.2562Q78.8159 28.4162 79.9199 29.6162Q81.0239 30.8162 82.7519 30.8162Q84.4799 30.8162 85.5839 29.6162Q86.6879 28.4162 86.6879 26.2562Z" transform="translate(67.6416 15.356445)" id="irepesin-Copy-Intersect-5" fill="#000000" fill-rule="evenodd" stroke="none" />
  </g>
</svg>