<?xml version="1.0" encoding="utf-8"?>
<svg width="71px" height="68px" viewbox="0 0 71 68" version="1.1" xmlns:xlink="http://www.w3.org/1999/xlink" xmlns="http://www.w3.org/2000/svg">
  <g id="Group-Copy-4">
    <path d="M54.2417 66.2085L70.6631 0.0251259Q70.5062 0 70.3472 0L48.3028 0Q48.2046 0 48.1068 0.00962572Q48.0091 0.0192514 47.9128 0.0384102Q47.8165 0.0575689 47.7225 0.0860762Q47.6285 0.114583 47.5378 0.152165Q47.447 0.189746 47.3604 0.236039Q47.2738 0.282333 47.1922 0.336892Q47.1105 0.391452 47.0346 0.453752Q46.9587 0.516052 46.8892 0.585493Q46.8198 0.654934 46.7575 0.730847Q46.6952 0.80676 46.6406 0.888414Q46.5861 0.970069 46.5398 1.05668Q46.4935 1.14329 46.4559 1.23401Q46.4183 1.32474 46.3898 1.41872Q46.3613 1.5127 46.3422 1.60901Q46.323 1.70533 46.3134 1.80306Q46.3038 1.90079 46.3038 1.999L46.3038 18.5212C50.8631 21.8348 53.8274 27.21 53.8274 33.2775C53.8274 39.345 50.8631 44.7202 46.3038 48.0338L46.3038 64.5537Q46.3038 64.6519 46.3134 64.7496Q46.323 64.8474 46.3422 64.9437Q46.3613 65.04 46.3898 65.134Q46.4183 65.2279 46.4559 65.3187Q46.4935 65.4094 46.5398 65.496Q46.5861 65.5826 46.6406 65.6643Q46.6952 65.7459 46.7575 65.8218Q46.8198 65.8978 46.8892 65.9672Q46.9587 66.0366 47.0346 66.0989Q47.1105 66.1612 47.1922 66.2158Q47.2738 66.2704 47.3604 66.3166Q47.447 66.3629 47.5378 66.4005Q47.6285 66.4381 47.7225 66.4666Q47.8165 66.4951 47.9128 66.5143Q48.0091 66.5334 48.1068 66.5431Q48.2046 66.5527 48.3028 66.5527L54.045 66.5527L54.2417 66.2085ZM-2.76107e-06 4.2085L-2.82173e-06 2.86375Q-2.83034e-06 2.66686 0.0384074 2.47376Q0.0768176 2.28066 0.152162 2.09876Q0.227506 1.91686 0.33689 1.75316Q0.446273 1.58946 0.585491 1.45024Q0.724709 1.31102 0.888412 1.20164Q1.05212 1.09226 1.23401 1.01691Q1.41591 0.941567 1.60901 0.903156Q1.80211 0.864746 1.999 0.864746L24.0433 0.864746Q24.1415 0.864746 24.2393 0.874372Q24.337 0.883998 24.4333 0.903156Q24.5296 0.922315 24.6236 0.950822Q24.7176 0.97933 24.8083 1.01691Q24.899 1.05449 24.9857 1.10079Q25.0723 1.14708 25.1539 1.20164Q25.2356 1.2562 25.3115 1.3185Q25.3874 1.3808 25.4568 1.45024Q25.5263 1.51968 25.5886 1.59559Q25.6509 1.67151 25.7054 1.75316Q25.76 1.83482 25.8063 1.92142Q25.8526 2.00803 25.8902 2.09876Q25.9278 2.18949 25.9563 2.28347Q25.9848 2.37744 26.0039 2.47376Q26.0231 2.57008 26.0327 2.66781Q26.0423 2.76554 26.0423 2.86375L26.0423 19.3835C21.4825 22.6971 18.5178 28.0725 18.5178 34.1405C18.5178 40.2084 21.4825 45.5838 26.0423 48.8974L26.0423 65.4185Q26.0423 65.5167 26.0327 65.6144Q26.0231 65.7122 26.0039 65.8085Q25.9848 65.9048 25.9563 65.9988Q25.9278 66.0927 25.8902 66.1835Q25.8526 66.2742 25.8063 66.3608Q25.76 66.4474 25.7054 66.5291Q25.6509 66.6107 25.5886 66.6866Q25.5263 66.7626 25.4568 66.832Q25.3874 66.9014 25.3115 66.9637Q25.2356 67.026 25.1539 67.0806Q25.0723 67.1351 24.9857 67.1814Q24.8991 67.2277 24.8083 67.2653Q24.7176 67.3029 24.6236 67.3314Q24.5296 67.3599 24.4333 67.3791Q24.337 67.3982 24.2393 67.4079Q24.1415 67.4175 24.0433 67.4175L19.273 67.4175L3.2417 4.2085L-2.76107e-06 4.2085Z" id="Group-Difference" fill="#01D3B0" fill-rule="evenodd" stroke="none" />
    <g id="user-tie" transform="translate(23.142578 16.86914)">
      <path d="M12.8362 14.6699C16.8876 14.6699 20.1712 11.3864 20.1712 7.33495C20.1712 3.28354 16.8876 0 12.8362 0C8.78478 0 5.50123 3.28354 5.50123 7.33495C5.50123 11.3864 8.78478 14.6699 12.8362 14.6699L12.8362 14.6699ZM18.326 16.538L15.5868 27.5061L13.7531 19.7127L15.5868 16.5036L10.0856 16.5036L11.9193 19.7127L10.0856 27.5061L7.34644 16.538C3.26063 16.7329 0 20.0737 0 24.2053L0 26.5892C0 28.1078 1.23205 29.3398 2.75062 29.3398L22.9218 29.3398C24.4404 29.3398 25.6724 28.1078 25.6724 26.5892L25.6724 24.2053C25.6724 20.0737 22.4118 16.7329 18.326 16.538L18.326 16.538Z" id="Shape" fill="#000000" fill-rule="evenodd" stroke="none" />
    </g>
  </g>
</svg>